# xmcd
# Copyright (C) 1995-1998 Ti Kan
#
# Track frame offsets:
#       150
#       14806
#       33695
#       48473
#       65008
#       78314
#       96253
#       110714
#       129557
#       143574
#       165844
#
# Disc length: 2441 seconds
#
# Revision: 0
# Processed by: cddbd v1.5.2PL0 Copyright (c) Steve Scherf et al.
# Submitted via: CD-Transfer v1.0
#
DISCID=9709870b
DTITLE=Belani, Luka - Luka Belani
DYEAR=11
DGENRE=
TTITLE0=Roundabout
TTITLE1=Scars
TTITLE2=Changin' Chapters
TTITLE3=Bring Me Your Love
TTITLE4=Wanderers, The
TTITLE5=A Few Songs Left
TTITLE6=Drifter
TTITLE7=In My Mind
TTITLE8=We Lay Low
TTITLE9=Words Vs. Man
TTITLE10=Smile
EXTD=
EXTT0=
EXTT1=
EXTT2=
EXTT3=
EXTT4=
EXTT5=
EXTT6=
EXTT7=
EXTT8=
EXTT9=
EXTT10=
PLAYORDER=
